<svg width="156" height="32" viewBox="0 0 156 32" fill="none" xmlns="http://www.w3.org/2000/svg">
<g id="Component 1" clip-path="url(#clip0_1501_5167)">
<path id="Vector" d="M4.38961 12.5451C1.95649 12.2387 0 10.3834 0 7.47276C0 3.94941 2.43289 0.34082 6.89066 0.34082C9.91899 0.34082 12.0629 2.34933 12.0629 5.44721C12.0629 8.83442 9.81699 12.0855 6.04009 12.528L6.05713 12.5962C6.29521 13.3792 7.12897 13.9238 8.30282 14.094L7.6733 15.3536C6.04009 15.2175 4.49184 14.009 4.38961 12.5451ZM10.3954 5.6004C10.3954 3.26846 8.98323 1.83862 6.73754 1.83862C3.55608 1.83862 1.66752 4.57898 1.66752 7.42162C1.66752 9.53218 3.07968 11.0982 5.32537 11.0982C8.31986 11.0982 10.3954 8.37485 10.3954 5.60017V5.6004Z" fill="white"/>
<path id="Vector_2" d="M17.66 11.3193C16.9285 12.0682 16.0436 12.5959 14.7166 12.5959C13.0834 12.5959 12.1476 11.6427 12.1476 10.1619C12.1476 9.94056 12.1647 9.68532 12.1988 9.48099L13.1686 3.91504H14.6657L13.6959 9.51509C13.6618 9.68532 13.6448 9.80442 13.6448 9.92352C13.6448 10.7747 14.1891 11.2343 15.1589 11.2343C16.1967 11.2343 17.2177 10.6215 17.9492 9.63418L18.9529 3.91504H20.45L18.9529 12.4257H17.4558L17.66 11.3193Z" fill="white"/>
<path id="Vector_3" d="M21.59 3.91517H23.0871L21.59 12.4258H20.0929L21.59 3.91517ZM21.6411 1.66847C21.6411 1.07276 22.1345 0.579102 22.73 0.579102C23.3254 0.579102 23.8189 1.07276 23.8189 1.66847C23.8189 2.26418 23.3254 2.75784 22.73 2.75784C22.1345 2.75784 21.6411 2.26418 21.6411 1.66847Z" fill="white"/>
<path id="Vector_4" d="M23.0022 8.81741C23.0022 6.23024 24.8907 3.74512 27.9702 3.74512C30.284 3.74512 31.5431 4.97063 31.5601 6.99619H30.1479C30.0459 5.83863 29.3142 5.10678 27.8341 5.10678C25.7754 5.10678 24.4995 6.87709 24.4995 8.71536C24.4995 10.3325 25.4353 11.2346 26.8134 11.2346C28.1915 11.2346 29.2122 10.4857 29.7227 9.34516H31.1348C30.4712 11.4387 28.9741 12.5962 26.6943 12.5962C24.4146 12.5962 23.0024 11.0302 23.0024 8.81741H23.0022Z" fill="white"/>
<path id="Vector_5" d="M33.4141 0H34.9113L33.6863 6.97875L37.072 3.91496H39.1137L34.7073 7.84697L37.9058 12.4256H36.0853L33.3971 8.61292L32.7165 12.4256H31.2193L33.4141 0Z" fill="white"/>
<path id="Vector_6" d="M40.2705 0.510742H42.8735L41.1892 10.1108H46.974L46.5657 12.4256H38.1779L40.2705 0.510742Z" fill="white"/>
<path id="Vector_7" d="M47.0587 8.74945C47.0587 5.99205 49.1345 3.74512 52.3159 3.74512C54.7147 3.74512 56.4502 5.22587 56.4502 7.57485C56.4502 10.3834 54.2894 12.5962 51.2609 12.5962C48.7598 12.5962 47.0585 11.0302 47.0585 8.74945H47.0587ZM54.0514 7.77918C54.0514 6.50253 53.2346 5.80476 52.0778 5.80476C50.5296 5.80476 49.4577 7.08142 49.4577 8.59626C49.4577 9.75382 50.2745 10.5368 51.4483 10.5368C52.8775 10.5368 54.0514 9.34539 54.0514 7.77941V7.77918Z" fill="white"/>
<path id="Vector_8" d="M56.0247 13.4304L56.2289 13.2431L58.4408 13.0388C58.5089 13.6515 59.0192 14.094 60.0401 14.094C61.2481 14.094 62.0477 13.396 62.3029 12.1705L62.4219 11.5919C61.8265 12.1364 61.1799 12.426 60.0569 12.426C58.1173 12.426 56.45 10.9621 56.45 8.66422C56.45 5.87272 58.4405 3.74512 61.316 3.74512C62.5409 3.74512 63.2216 4.15355 63.6469 4.66425L63.7659 3.91535H66.0286L64.5824 12.0855C64.1571 14.5877 62.5748 16.0005 59.6825 16.0005C57.2835 16.0005 56.1267 14.792 56.0247 13.4304ZM62.9492 8.54513L63.1023 7.64304C63.1194 7.50689 63.1364 7.3878 63.1364 7.26847C63.1364 6.31524 62.4728 5.65135 61.418 5.65135C59.6825 5.65135 58.7297 6.99596 58.7297 8.47694C58.7297 9.80451 59.6485 10.5195 60.6183 10.5195C61.9114 10.5195 62.7279 9.7195 62.9492 8.54513Z" fill="white"/>
<path id="Vector_9" d="M66.8962 3.91527H69.2782L67.7811 12.4259H65.4161L66.8962 3.91527ZM67.1005 1.61743C67.1005 0.851483 67.73 0.22168 68.4956 0.22168C69.2612 0.22168 69.9077 0.851483 69.9077 1.61743C69.9077 2.38338 69.2612 3.03023 68.4956 3.03023C67.73 3.03023 67.1005 2.38338 67.1005 1.61743Z" fill="white"/>
<path id="Vector_10" d="M70.1626 3.91535H72.5446L72.3404 4.95359C73.089 4.17059 73.9568 3.74512 75.1818 3.74512C76.849 3.74512 77.8189 4.81744 77.8189 6.28138C77.8189 6.51957 77.8018 6.77504 77.7678 7.01323L76.815 12.426H74.433L75.3346 7.30256C75.3517 7.16642 75.3687 7.06414 75.3687 6.96209C75.3687 6.21319 74.8582 5.80476 74.0756 5.80476C73.293 5.80476 72.4762 6.29842 71.9828 7.06437L71.047 12.426H68.665L70.1622 3.91535H70.1626Z" fill="white"/>
</g>
<defs>
<clipPath id="clip0_1501_5167">
<rect width="156" height="32" fill="white"/>
</clipPath>
</defs>
</svg>
